<svg width="25" height="26" viewBox="0 0 25 26" fill="none" xmlns="http://www.w3.org/2000/svg">
<path d="M12.4966 8.89797C10.2014 8.89797 8.32828 10.7711 8.32828 13.0664C8.32828 15.3617 10.2014 17.2348 12.4966 17.2348C14.7919 17.2348 16.665 15.3617 16.665 13.0664C16.665 10.7711 14.7919 8.89797 12.4966 8.89797ZM24.9986 13.0664C24.9986 11.3402 25.0142 9.62971 24.9173 7.90667C24.8204 5.90532 24.3638 4.12912 22.9004 2.66563C21.4338 1.19901 19.6607 0.745582 17.6594 0.648641C15.9333 0.551701 14.2228 0.567336 12.4998 0.567336C10.7736 0.567336 9.06313 0.551701 7.34013 0.648641C5.33881 0.745582 3.56265 1.20214 2.09918 2.66563C0.632595 4.13225 0.179172 5.90532 0.0822335 7.90667C-0.0147052 9.63284 0.000930124 11.3434 0.000930124 13.0664C0.000930124 14.7894 -0.0147052 16.5031 0.0822335 18.2261C0.179172 20.2275 0.635722 22.0037 2.09918 23.4672C3.56577 24.9338 5.33881 25.3872 7.34013 25.4842C9.06626 25.5811 10.7768 25.5655 12.4998 25.5655C14.2259 25.5655 15.9364 25.5811 17.6594 25.4842C19.6607 25.3872 21.4369 24.9307 22.9004 23.4672C24.3669 22.0006 24.8204 20.2275 24.9173 18.2261C25.0174 16.5031 24.9986 14.7926 24.9986 13.0664ZM12.4966 19.4801C8.94743 19.4801 6.08305 16.6157 6.08305 13.0664C6.08305 9.51713 8.94743 6.6527 12.4966 6.6527C16.0458 6.6527 18.9102 9.51713 18.9102 13.0664C18.9102 16.6157 16.0458 19.4801 12.4966 19.4801ZM19.1729 7.88791C18.3442 7.88791 17.675 7.21871 17.675 6.39002C17.675 5.56134 18.3442 4.89213 19.1729 4.89213C20.0016 4.89213 20.6708 5.56134 20.6708 6.39002C20.671 6.5868 20.6324 6.78169 20.5572 6.96353C20.4821 7.14537 20.3717 7.3106 20.2326 7.44974C20.0935 7.58888 19.9282 7.6992 19.7464 7.77439C19.5646 7.84958 19.3697 7.88815 19.1729 7.88791Z" fill="white" fill-opacity="0.87"/>
</svg>
