<svg width="25" height="26" viewBox="0 0 25 26" fill="none" xmlns="http://www.w3.org/2000/svg">
<path d="M12.4966 8.89772C10.2014 8.89772 8.32828 10.7709 8.32828 13.0662C8.32828 15.3615 10.2014 17.2346 12.4966 17.2346C14.7919 17.2346 16.665 15.3615 16.665 13.0662C16.665 10.7709 14.7919 8.89772 12.4966 8.89772ZM24.9986 13.0662C24.9986 11.34 25.0142 9.62947 24.9173 7.90643C24.8204 5.90507 24.3638 4.12887 22.9004 2.66538C21.4338 1.19877 19.6607 0.745338 17.6594 0.648397C15.9333 0.551457 14.2228 0.567092 12.4998 0.567092C10.7736 0.567092 9.06313 0.551457 7.34013 0.648397C5.33881 0.745338 3.56265 1.2019 2.09918 2.66538C0.632595 4.132 0.179172 5.90507 0.0822335 7.90643C-0.0147052 9.63259 0.000930124 11.3431 0.000930124 13.0662C0.000930124 14.7892 -0.0147052 16.5029 0.0822335 18.2259C0.179172 20.2273 0.635722 22.0035 2.09918 23.4669C3.56577 24.9336 5.33881 25.387 7.34013 25.4839C9.06626 25.5809 10.7768 25.5652 12.4998 25.5652C14.2259 25.5652 15.9364 25.5809 17.6594 25.4839C19.6607 25.387 21.4369 24.9304 22.9004 23.4669C24.3669 22.0003 24.8204 20.2273 24.9173 18.2259C25.0174 16.5029 24.9986 14.7923 24.9986 13.0662ZM12.4966 19.4799C8.94743 19.4799 6.08305 16.6154 6.08305 13.0662C6.08305 9.51689 8.94743 6.65245 12.4966 6.65245C16.0458 6.65245 18.9102 9.51689 18.9102 13.0662C18.9102 16.6154 16.0458 19.4799 12.4966 19.4799ZM19.1729 7.88766C18.3442 7.88766 17.675 7.21846 17.675 6.38978C17.675 5.56109 18.3442 4.89189 19.1729 4.89189C20.0016 4.89189 20.6708 5.56109 20.6708 6.38978C20.671 6.58655 20.6324 6.78144 20.5572 6.96328C20.4821 7.14513 20.3717 7.31035 20.2326 7.44949C20.0935 7.58863 19.9282 7.69896 19.7464 7.77415C19.5646 7.84934 19.3697 7.88791 19.1729 7.88766Z" fill="white" fill-opacity="0.87"/>
</svg>
